<svg xmlns="http://www.w3.org/2000/svg" viewBox="0 0 320 260" role="img" aria-label="Laptop illustration">
  <defs>
    <linearGradient id="screen" x1="0" x2="1" y1="0" y2="1">
      <stop offset="0" stop-color="#f5f8fb"/>
      <stop offset="1" stop-color="#dce8f2"/>
    </linearGradient>
  </defs>
  <rect x="65" y="25" width="190" height="130" rx="9" fill="#1a1a1a"/>
  <rect x="71" y="31" width="178" height="118" rx="5" fill="url(#screen)"/>
  <path d="M71 31h89v118H71z" fill="#0a7b45"/>
  <path d="M160 31h89v118h-89z" fill="#ffffff"/>
  <path d="M160 56c15 0 27 12 27 27s-12 27-27 27-27-12-27-27 12-27 27-27zm0 6c-12 0-21 9-21 21s9 21 21 21 21-9 21-21-9-21-21-21z" fill="#d61d2e" opacity="0.9"/>
  <path d="M182 84l9 3-7 5 3 9-8-5-8 5 3-9-7-5 9-3 3-9z" fill="#d61d2e"/>
  <path d="M92 79h36l-8 10 8 10H92l8-10z" fill="#ffffff" opacity="0.95"/>
  <rect x="47" y="158" width="226" height="16" rx="8" fill="#c3c8cf"/>
  <path d="M85 174h150l20 42H65z" fill="#e7ebf0"/>
  <path d="M76 184h168l14 32H62z" fill="#f7f8fa"/>
  <rect x="92" y="187" width="116" height="7" rx="3.5" fill="#7a7f86"/>
  <rect x="102" y="198" width="95" height="4" rx="2" fill="#9ea4aa"/>
  <circle cx="95" cy="208" r="5" fill="#8d939a"/>
</svg>
